<?xml version="1.0" encoding="UTF-8"?>
<svg version="1.1" xmlns="http://www.w3.org/2000/svg" width="500" height="500">
<path d="M0 0 C165 0 330 0 500 0 C500 165 500 330 500 500 C335 500 170 500 0 500 C0 335 0 170 0 0 Z " fill="#000000" transform="translate(0,0)"/>
<path d="M0 0 C14.375625 -0.061875 28.75125 -0.12375 43.5625 -0.1875 C48.07236572 -0.21481201 52.58223145 -0.24212402 57.22875977 -0.27026367 C62.8104248 -0.28381348 62.8104248 -0.28381348 65.43785095 -0.28633118 C67.24138115 -0.29088541 69.04490323 -0.30132509 70.84837341 -0.31672668 C92.13716706 -0.48916692 115.27994284 1.97908492 131.75 17 C143.24659446 29.19836145 145.53485556 43.8284471 145.2421875 59.859375 C144.86043442 70.2989988 141.70772505 83.29227495 134 91 C131.30345146 91.07319621 128.63308542 91.09242537 125.9375 91.0625 C125.17888672 91.05798828 124.42027344 91.05347656 123.63867188 91.04882812 C121.75908129 91.0370068 119.87953101 91.01907078 118 91 C119.3303125 89.5459375 119.3303125 89.5459375 120.6875 88.0625 C131.69943835 75.17618916 132.21005761 61.29645082 131 45 C129.1874558 35.32966473 123.56615936 27.03346357 115.5234375 21.37890625 C101.29391701 13.60333236 85.35166986 12.69845984 69.51953125 12.5859375 C68.04145325 12.56896153 66.56338472 12.55114048 65.08532715 12.5324707 C59.66115966 12.46978631 54.23681432 12.42333627 48.8125 12.375 C36.664375 12.25125 24.51625 12.1275 12 12 C12 38.4 12 64.8 12 92 C8.04 92 4.08 92 0 92 C0 61.64 0 31.28 0 0 Z " fill="#F5EDEB" transform="translate(275,139)"/>
<path d="M0 0 C1.47668858 0.0133035 2.95331108 0.03716415 4.4296875 0.0703125 C5.18378906 0.07933594 5.93789062 0.08835938 6.71484375 0.09765625 C8.57826004 0.1212438 10.44151343 0.15711531 12.3046875 0.1953125 C8.68830221 5.34592185 4.79149589 9.834682 0.28515625 14.22265625 C-1.50859585 16.00933241 -3.17314807 17.83681216 -4.8203125 19.7578125 C-8.2954491 23.79885437 -11.92526134 27.68331614 -15.5703125 31.5703125 C-19.48411929 35.74527824 -23.38342155 39.9265657 -27.1953125 44.1953125 C-30.9687537 48.41931384 -34.82365022 52.56165034 -38.6953125 56.6953125 C-43.31608138 61.62943683 -47.89980236 66.58807 -52.3828125 71.6484375 C-54.20565808 73.65603094 -56.05606185 75.61089728 -57.9453125 77.5546875 C-58.50395996 78.13718262 -59.06260742 78.71967773 -59.63818359 79.31982422 C-60.74030871 80.46673817 -61.85234467 81.60422853 -62.97509766 82.73095703 C-64.68067081 84.46142911 -64.68067081 84.46142911 -66.6953125 87.1953125 C-66.3653125 88.5153125 -66.0353125 89.8353125 -65.6953125 91.1953125 C-72.6253125 91.1953125 -79.5553125 91.1953125 -86.6953125 91.1953125 C-79.9936996 82.25982863 -79.9936996 82.25982863 -76.2578125 78.6953125 C-72.81018758 75.39371958 -69.67695383 71.91259337 -66.5534668 68.30957031 C-63.55851705 64.90183614 -60.4378543 61.61556105 -57.3203125 58.3203125 C-52.50391344 53.20755583 -47.74250222 48.05823028 -43.06640625 42.81640625 C-39.98140741 39.40613571 -36.83897198 36.05145431 -33.6953125 32.6953125 C-29.07406768 27.76072146 -24.50201156 22.79051823 -19.99609375 17.75 C-17.10748516 14.54261457 -14.18555446 11.36696037 -11.2578125 8.1953125 C-10.73687012 7.63054199 -10.21592773 7.06577148 -9.67919922 6.48388672 C-3.87502785 0.2048112 -3.87502785 0.2048112 0 0 Z " fill="#F7F0EE" transform="translate(224.6953125,138.8046875)"/>
<path d="M0 0 C4.93178625 -0.95935323 9.09287646 -1.19849034 14 0 C17.82612016 3.68586649 20.12324945 7.95720808 22.65136719 12.59570312 C25.11003246 16.97892825 27.89894176 21.15504518 30.625 25.375 C31.82341358 27.26057657 33.01998383 29.14732578 34.21484375 31.03515625 C38.18981883 37.30446819 42.18587665 43.56017117 46.1875 49.8125 C46.85966553 50.86284424 47.53183105 51.91318848 48.22436523 52.99536133 C52.61599274 59.85240733 57.02411524 66.6985009 61.46362305 73.5246582 C62.6471094 75.34679055 63.82431609 77.17282554 65 79 C65.46486816 79.71526855 65.92973633 80.43053711 66.40869141 81.16748047 C66.86808105 81.88436035 67.3274707 82.60124023 67.80078125 83.33984375 C68.22141846 83.99202881 68.64205566 84.64421387 69.07543945 85.31616211 C70 87 70 87 70 89 C64.92506414 90.10950015 59.92722174 90.97064128 55 89 C50.51293037 84.84711721 48.01466325 78.85765767 45.29736328 73.47509766 C43.33687001 69.73488674 41.02900287 66.25950059 38.6875 62.75 C37.76900886 61.34363779 36.85238934 59.93605172 35.9375 58.52734375 C35.46441406 57.80015137 34.99132812 57.07295898 34.50390625 56.32373047 C29.90048702 49.21084991 25.38028261 42.04401958 20.83789062 34.89208984 C18.95105521 31.92298088 17.06183457 28.95540242 15.171875 25.98828125 C14.54643799 25.00625732 13.92100098 24.0242334 13.27661133 23.01245117 C12.08653573 21.14400247 10.89628073 19.27566802 9.70581055 17.4074707 C8.63534795 15.72617648 7.56649044 14.04385886 6.49951172 12.36035156 C5.50224201 10.79056916 4.49867531 9.22476899 3.48876953 7.66308594 C3.02970215 6.94668945 2.57063477 6.23029297 2.09765625 5.4921875 C1.48869507 4.55028564 1.48869507 4.55028564 0.86743164 3.58935547 C0 2 0 2 0 0 Z " fill="#F7EFED" transform="translate(171,270)"/>
<path d="M0 0 C4.62 0 9.24 0 14 0 C14.67160156 1.61132812 15.34320313 3.22265625 16.03515625 4.8828125 C17.04377442 7.29708394 18.05282759 9.71116959 19.0625 12.125 C19.46909851 13.09743149 19.46909851 13.09743149 19.88391113 14.08950806 C24.19509124 24.39230138 28.5603739 34.67146563 32.94921875 44.94140625 C33.46633926 46.15217834 33.98345978 47.36295044 34.51625061 48.6104126 C37.67174687 55.99826592 37.67174687 55.99826592 40.83425903 63.38311768 C42.3347449 66.88324138 43.83169639 70.38485892 45.328125 73.88671875 C45.78487106 74.94903214 46.24161713 76.01134552 46.71220398 77.10585022 C47.13105362 78.08758713 47.54990326 79.06932404 47.98144531 80.08081055 C48.34860657 80.93772995 48.71576782 81.79464935 49.09405518 82.67753601 C50 85 50 85 51 89 C46.38 89 41.76 89 37 89 C35.48693256 85.4492386 33.97391203 81.89845723 32.4609375 78.34765625 C31.98766525 77.2369426 31.51439301 76.12622894 31.02677917 74.9818573 C28.42054228 68.8649046 25.81496672 62.74767169 23.21069336 56.62988281 C22.42032273 54.77325018 21.62995105 52.91661799 20.83957863 51.05998611 C20.31269846 49.82229797 19.7858316 48.58460416 19.25897789 47.34690475 C16.31639301 40.43438649 13.37075637 33.52320472 10.41583252 26.61595154 C9.09357074 23.52437593 7.77382518 20.43173076 6.45465088 17.33883667 C5.86149156 15.95004362 5.26705628 14.56179481 4.67132568 13.17410278 C3.86231595 11.28931524 3.05795594 9.40253383 2.25390625 7.515625 C1.81377197 6.48727539 1.3736377 5.45892578 0.92016602 4.39941406 C0 2 0 2 0 0 Z " fill="#F6EFED" transform="translate(368,270)"/>
<path d="M0 0 C7.92 0 15.84 0 24 0 C18 8 18 8 15.16621399 10.52848816 C12.32462767 13.77055671 12.28928134 16.42497161 12.34057617 20.54418945 C12.33009247 21.28619095 12.31960876 22.02819244 12.30880737 22.79267883 C12.28011802 25.23330822 12.28634108 27.67251387 12.29296875 30.11328125 C12.27984989 31.81009188 12.26454508 33.50688691 12.24714661 35.20365906 C12.20730525 39.6605351 12.19710676 44.11700253 12.19311523 48.57403564 C12.18378212 53.12565499 12.14636749 57.67703442 12.11132812 62.22851562 C12.0467612 71.15233255 12.01351381 80.07596993 12 89 C8.04 89 4.08 89 0 89 C0 59.63 0 30.26 0 0 Z " fill="#FBF3F1" transform="translate(92,270)"/>
<path d="M0 0 C3.96 0 7.92 0 12 0 C12 30.03 12 60.06 12 91 C8.04 91 4.08 91 0 91 C0 60.97 0 30.94 0 0 Z " fill="#FBF3F1" transform="translate(92,139)"/>
<path d="M0 0 C3.63 0 7.26 0 11 0 C11 29.37 11 58.74 11 89 C7.37 89 3.74 89 0 89 C0 59.63 0 30.26 0 0 Z " fill="#FCF4F2" transform="translate(276,270)"/>
<path d="M0 0 C2.69990662 1.79993774 4.5418865 3.083773 6 6 C6.62286015 11.02737124 6.77644356 14.78680694 4 19.125 C-0.16405924 21.72753703 -2.13902472 21.69442504 -7 21 C-9.96858157 18.79259319 -10.82865791 17.51402627 -12 14 C-12.53756448 8.30181648 -11.60129241 5.44865533 -8 1 C-5.14675563 -0.42662219 -3.16545451 -0.31033868 0 0 Z " fill="#090808" transform="translate(338,238)"/>
<path d="M0 0 C2.69990662 1.79993774 4.5418865 3.083773 6 6 C6.62286015 11.02737124 6.77644356 14.78680694 4 19.125 C-0.16405924 21.72753703 -2.13902472 21.69442504 -7 21 C-9.96858157 18.79259319 -10.82865791 17.51402627 -12 14 C-12.53756448 8.30181648 -11.60129241 5.44865533 -8 1 C-5.14675563 -0.42662219 -3.16545451 -0.31033868 0 0 Z " fill="#090808" transform="translate(190,238)"/>
<path d="M0 0 C4.31791908 2.39884393 4.31791908 2.39884393 6 5 C6.95222924 9.72243771 6.59342295 13.67828525 4.625 18.0625 C2.13826553 21.02745264 1.10998939 20.98935587 -2.875 21.375 C-6.02727367 21.30049171 -6.84388675 21.11318211 -9.5 19.1875 C-11.72646116 14.45627004 -11.88502228 10.13312923 -11 5 C-7.97636659 0.46454989 -5.41889273 -1.10589648 0 0 Z " fill="#040404" transform="translate(280,238)"/>
<path d="M0 0 C10.34625323 -0.36950904 10.34625323 -0.36950904 13.3359375 1.3203125 C15 3 15 3 15.375 6.0625 C15 9 15 9 13 11 C13.37083833 14.4117126 14.10858176 17.68901795 15 21 C14.01 21 13.02 21 12 21 C11.01 18.03 10.02 15.06 9 12 C7.02 12 5.04 12 3 12 C3 14.97 3 17.94 3 21 C2.01 21 1.02 21 0 21 C0 14.07 0 7.14 0 0 Z " fill="#B4AFAD" transform="translate(204,238)"/>
<path d="M0 0 C10.8 0 10.8 0 14 3 C15.12306908 6.29901541 15.33257958 8.09728399 14.125 11.375 C10.73795656 13.96509204 7.11459336 13.31053535 3 13 C3 15.64 3 18.28 3 21 C2.01 21 1.02 21 0 21 C0 14.07 0 7.14 0 0 Z " fill="#DED8D6" transform="translate(157,238)"/>
<path d="M0 0 C2.69990662 1.79993774 4.5418865 3.083773 6 6 C6.62286015 11.02737124 6.77644356 14.78680694 4 19.125 C-0.16405924 21.72753703 -2.13902472 21.69442504 -7 21 C-9.96858157 18.79259319 -10.82865791 17.51402627 -12 14 C-12.53756448 8.30181648 -11.60129241 5.44865533 -8 1 C-5.14675563 -0.42662219 -3.16545451 -0.31033868 0 0 Z M-7.875 4.5625 C-9.71471108 8.54854067 -9.47843554 12.18194493 -8.375 16.375 C-7.0100408 18.28868845 -7.0100408 18.28868845 -4.0625 18.875 C-0.82462068 19.30787112 -0.82462068 19.30787112 2 17 C3.25383227 13.23850318 3.44258388 9.9340789 3 6 C2.03882095 3.87129307 2.03882095 3.87129307 0 3 C-3.41688319 2.50170453 -5.17143446 2.30952872 -7.875 4.5625 Z " fill="#E7E0DE" transform="translate(338,238)"/>
<path d="M0 0 C2.69990662 1.79993774 4.5418865 3.083773 6 6 C6.62286015 11.02737124 6.77644356 14.78680694 4 19.125 C-0.16405924 21.72753703 -2.13902472 21.69442504 -7 21 C-9.96858157 18.79259319 -10.82865791 17.51402627 -12 14 C-12.53756448 8.30181648 -11.60129241 5.44865533 -8 1 C-5.14675563 -0.42662219 -3.16545451 -0.31033868 0 0 Z M-7.875 4.5625 C-9.71471108 8.54854067 -9.47843554 12.18194493 -8.375 16.375 C-7.0100408 18.28868845 -7.0100408 18.28868845 -4.0625 18.875 C-0.82462068 19.30787112 -0.82462068 19.30787112 2 17 C3.25383227 13.23850318 3.44258388 9.9340789 3 6 C2.03882095 3.87129307 2.03882095 3.87129307 0 3 C-3.41688319 2.50170453 -5.17143446 2.30952872 -7.875 4.5625 Z " fill="#E7E0DE" transform="translate(190,238)"/>
<path d="M0 0 C4.31791908 2.39884393 4.31791908 2.39884393 6 5 C6.95222924 9.72243771 6.59342295 13.67828525 4.625 18.0625 C2.13826553 21.02745264 1.10998939 20.98935587 -2.875 21.375 C-6.02727367 21.30049171 -6.84388675 21.11318211 -9.5 19.1875 C-11.72646116 14.45627004 -11.88502228 10.13312923 -11 5 C-7.97636659 0.46454989 -5.41889273 -1.10589648 0 0 Z M-6 3 C-8.14553377 6.21830065 -8.29583868 7.26786507 -8.3125 11 C-8.32925781 11.86625 -8.34601563 12.7325 -8.36328125 13.625 C-8.17923646 16.04774824 -8.17923646 16.04774824 -6.671875 17.8203125 C-4.92335004 19.30842519 -4.92335004 19.30842519 -1.9375 18.875 C1.29255415 18.25349587 1.29255415 18.25349587 3 15 C3.35293451 12.81971604 3.35293451 12.81971604 3.3125 10.5 C3.32925781 9.7265625 3.34601563 8.953125 3.36328125 8.15625 C2.91138579 5.47403181 2.16392342 4.60777488 0 3 C-3.04230823 2.49989476 -3.04230823 2.49989476 -6 3 Z " fill="#E6DFDD" transform="translate(280,238)"/>
<path d="M0 0 C4.95 0 9.9 0 15 0 C15 0.99 15 1.98 15 3 C13.02 3 11.04 3 9 3 C9 8.94 9 14.88 9 21 C8.01 21 7.02 21 6 21 C6 15.06 6 9.12 6 3 C4.02 3 2.04 3 0 3 C0 2.01 0 1.02 0 0 Z " fill="#DAD3D2" transform="translate(226,238)"/>
<path d="M0 0 C4.29 0 8.58 0 13 0 C13 0.66 13 1.32 13 2 C9.37 2 5.74 2 2 2 C2 4.31 2 6.62 2 9 C4.97 9 7.94 9 11 9 C11 9.66 11 10.32 11 11 C8.03 11 5.06 11 2 11 C2 13.97 2 16.94 2 20 C1.34 20 0.68 20 0 20 C0 13.4 0 6.8 0 0 Z " fill="#F3EBE9" transform="translate(249,239)"/>
<path d="M0 0 C3.375 -0.125 3.375 -0.125 7 0 C7.66 0.66 8.32 1.32 9 2 C8.44444444 6.55555556 8.44444444 6.55555556 7 8 C4.66702567 8.04092937 2.33294775 8.04241723 0 8 C0 5.36 0 2.72 0 0 Z " fill="#020202" transform="translate(160,241)"/>
<path d="M0 0 C0.99 0 1.98 0 3 0 C3 6.93 3 13.86 3 21 C2.01 21 1.02 21 0 21 C0 14.07 0 7.14 0 0 Z " fill="#DBD5D3" transform="translate(315,238)"/>
<path d="M0 0 C0.66 0 1.32 0 2 0 C2 6.27 2 12.54 2 19 C5.3 19 8.6 19 12 19 C12 19.66 12 20.32 12 21 C8.04 21 4.08 21 0 21 C0 14.07 0 7.14 0 0 Z " fill="#F8F1EF" transform="translate(295,238)"/>
<path d="M0 0 C1.16147142 3.48441426 1 6.34133115 1 10 C1.42854995 12.31036915 1.42854995 12.31036915 2 14 C4.31 14.33 6.62 14.66 9 15 C9 15.66 9 16.32 9 17 C2.64096386 17.48915663 2.64096386 17.48915663 -0.375 15.1875 C-3.29339112 11.25889657 -3.34106968 7.77497555 -3 3 C-1.5 1.0625 -1.5 1.0625 0 0 Z " fill="#E5DDDB" transform="translate(329,242)"/>
<path d="M0 0 C1.16147142 3.48441426 1 6.34133115 1 10 C1.42854995 12.31036915 1.42854995 12.31036915 2 14 C4.31 14.33 6.62 14.66 9 15 C9 15.66 9 16.32 9 17 C2.64096386 17.48915663 2.64096386 17.48915663 -0.375 15.1875 C-3.29339112 11.25889657 -3.34106968 7.77497555 -3 3 C-1.5 1.0625 -1.5 1.0625 0 0 Z " fill="#E5DDDB" transform="translate(181,242)"/>
<path d="M0 0 C6.15234375 -0.09765625 6.15234375 -0.09765625 8 0 C9 1 9 1 9.0625 3.5625 C9.041875 4.366875 9.02125 5.17125 9 6 C6.04335481 7.4783226 3.25770263 7.06032783 0 7 C0 4.69 0 2.38 0 0 Z " fill="#080707" transform="translate(207,241)"/>
<path d="M0 0 C2.97 0 5.94 0 9 0 C9 0.33 9 0.66 9 1 C6.69 1 4.38 1 2 1 C2 3.64 2 6.28 2 9 C3.65 9 5.3 9 7 9 C6.67 9.66 6.34 10.32 6 11 C4.68 11 3.36 11 2 11 C2 13.97 2 16.94 2 20 C1.34 20 0.68 20 0 20 C0 13.4 0 6.8 0 0 Z " fill="#FCF4F2" transform="translate(205,239)"/>
<path d="M0 0 C2.442234 1.44868881 3.9741784 2.92594455 6 5 C6 5.99 6 6.98 6 8 C5.34 8 4.68 8 4 8 C4 9.65 4 11.3 4 13 C3.67 13 3.34 13 3 13 C2.67 10.03 2.34 7.06 2 4 C-2.0100934 3.82135369 -2.0100934 3.82135369 -6 4 C-6.66 4.66 -7.32 5.32 -8 6 C-8 5.34 -8 4.68 -8 4 C-8.66 3.67 -9.32 3.34 -10 3 C-6.69325426 -0.05238068 -4.46032201 -0.71365152 0 0 Z " fill="#D9D2D0" transform="translate(280,238)"/>
<path d="M0 0 C0.33 0 0.66 0 1 0 C1.76681614 8.77578475 1.76681614 8.77578475 -0.11328125 11.77734375 C-1.5 13.125 -1.5 13.125 -4 15 C-4.66 14.01 -5.32 13.02 -6 12 C-5.34 11.67 -4.68 11.34 -4 11 C-1.42926228 7.40096719 -0.50864727 4.37436651 0 0 Z " fill="#D6CFCD" transform="translate(343,244)"/>
<path d="M0 0 C0.33 0 0.66 0 1 0 C1.76681614 8.77578475 1.76681614 8.77578475 -0.11328125 11.77734375 C-1.5 13.125 -1.5 13.125 -4 15 C-4.66 14.01 -5.32 13.02 -6 12 C-5.34 11.67 -4.68 11.34 -4 11 C-1.42926228 7.40096719 -0.50864727 4.37436651 0 0 Z " fill="#D6CFCD" transform="translate(195,244)"/>
<path d="M0 0 C1 1 1 1 1.0625 4.0625 C1.041875 5.031875 1.02125 6.00125 1 7 C0.01 6.67 -0.98 6.34 -2 6 C-2.6875 3.9375 -2.6875 3.9375 -3 2 C-5.64 1.67 -8.28 1.34 -11 1 C-11 0.67 -11 0.34 -11 0 C-3.4137931 -1.31299735 -3.4137931 -1.31299735 0 0 Z " fill="#D6CFCD" transform="translate(218,240)"/>
<path d="M0 0 C0 0.66 0 1.32 0 2 C-3.31114834 3.12880057 -6.58978257 4.21302675 -10 5 C-7.62417533 -0.26075462 -5.61350876 -0.1220328 0 0 Z " fill="#D5CFCD" transform="translate(338,238)"/>
<path d="M0 0 C0 0.66 0 1.32 0 2 C-0.94875 2.28875 -1.8975 2.5775 -2.875 2.875 C-6.05211578 3.76825109 -6.05211578 3.76825109 -8 6 C-8 5.34 -8 4.68 -8 4 C-8.66 3.67 -9.32 3.34 -10 3 C-6.68152292 -0.06320961 -4.44849969 -0.3033068 0 0 Z " fill="#D1CBC9" transform="translate(280,238)"/>
<path d="M0 0 C0 0.66 0 1.32 0 2 C-3.31114834 3.12880057 -6.58978257 4.21302675 -10 5 C-7.62417533 -0.26075462 -5.61350876 -0.1220328 0 0 Z " fill="#D5CFCD" transform="translate(190,238)"/>
<path d="M0 0 C0.33 0.66 0.66 1.32 1 2 C3.32156597 2.40729228 5.6568787 2.74438677 8 3 C8 3.66 8 4.32 8 5 C4.625 5.1875 4.625 5.1875 1 5 C0.34 4.01 -0.32 3.02 -1 2 C-0.67 1.34 -0.34 0.68 0 0 Z " fill="#ECE5E3" transform="translate(330,254)"/>
<path d="M0 0 C0.33 0.66 0.66 1.32 1 2 C3.32156597 2.40729228 5.6568787 2.74438677 8 3 C8 3.66 8 4.32 8 5 C4.625 5.1875 4.625 5.1875 1 5 C0.34 4.01 -0.32 3.02 -1 2 C-0.67 1.34 -0.34 0.68 0 0 Z " fill="#ECE5E3" transform="translate(182,254)"/>
<path d="M0 0 C0.99 0.33 1.98 0.66 3 1 C4.1875 4.0625 4.1875 4.0625 5 7 C4.01 7 3.02 7 2 7 C0.5393715 4.35261084 0 3.10551666 0 0 Z " fill="#E2DBD9" transform="translate(214,252)"/>
<path d="M0 0 C0.6875 1.75 0.6875 1.75 1 4 C-0.3125 6.25 -0.3125 6.25 -2 8 C-2.66 8 -3.32 8 -4 8 C-3.625 6.0625 -3.625 6.0625 -3 4 C-2.34 3.67 -1.68 3.34 -1 3 C-0.67 2.01 -0.34 1.02 0 0 Z " fill="#D0CAC8" transform="translate(171,243)"/>
</svg>
